<mxfile host="65bd71144e">
    <diagram id="_wmzeyA2pHgwqkmctG8V" name="Pagina-1">
        <mxGraphModel dx="2653" dy="831" grid="1" gridSize="10" guides="1" tooltips="1" connect="1" arrows="1" fold="1" page="1" pageScale="1" pageWidth="827" pageHeight="1169" math="0" shadow="0">
            <root>
                <mxCell id="0"/>
                <mxCell id="1" parent="0"/>
                <mxCell id="G2vlBzImF_ADGUNNSKKD-95" value="" style="endArrow=classic;html=1;rounded=0;exitX=-0.01;exitY=0.443;exitDx=0;exitDy=0;exitPerimeter=0;entryX=0.5;entryY=0.5;entryDx=0;entryDy=0;entryPerimeter=0;" parent="1" source="G2vlBzImF_ADGUNNSKKD-93" target="G2vlBzImF_ADGUNNSKKD-3" edge="1">
                    <mxGeometry width="50" height="50" relative="1" as="geometry">
                        <mxPoint x="260" y="1090" as="sourcePoint"/>
                        <mxPoint x="310" y="1040" as="targetPoint"/>
                    </mxGeometry>
                </mxCell>
                <mxCell id="G2vlBzImF_ADGUNNSKKD-26" value="Frontend&lt;br&gt;(Containerized in a Amazon EC2 instance)" style="shape=umlFrame;whiteSpace=wrap;html=1;width=270;height=40;" parent="1" vertex="1">
                    <mxGeometry x="-120" y="480" width="820" height="990" as="geometry"/>
                </mxCell>
                <mxCell id="G2vlBzImF_ADGUNNSKKD-23" value="Amazon Comprehend" style="shape=umlFrame;whiteSpace=wrap;html=1;width=170;height=30;" parent="1" vertex="1">
                    <mxGeometry x="720" y="730" width="430" height="190" as="geometry"/>
                </mxCell>
                <mxCell id="G2vlBzImF_ADGUNNSKKD-59" value="" style="endArrow=classic;html=1;rounded=0;exitX=0.5;exitY=0.5;exitDx=0;exitDy=0;exitPerimeter=0;" parent="1" source="G2vlBzImF_ADGUNNSKKD-3" target="G2vlBzImF_ADGUNNSKKD-56" edge="1">
                    <mxGeometry width="50" height="50" relative="1" as="geometry">
                        <mxPoint x="-360" y="870" as="sourcePoint"/>
                        <mxPoint x="-310" y="820" as="targetPoint"/>
                    </mxGeometry>
                </mxCell>
                <mxCell id="G2vlBzImF_ADGUNNSKKD-58" value="" style="endArrow=classic;html=1;rounded=0;exitX=0.533;exitY=0.433;exitDx=0;exitDy=0;exitPerimeter=0;" parent="1" source="G2vlBzImF_ADGUNNSKKD-4" target="G2vlBzImF_ADGUNNSKKD-56" edge="1">
                    <mxGeometry width="50" height="50" relative="1" as="geometry">
                        <mxPoint x="-264.25" y="1129.3900000000003" as="sourcePoint"/>
                        <mxPoint x="-2.5000000000063665" y="1130" as="targetPoint"/>
                    </mxGeometry>
                </mxCell>
                <mxCell id="G2vlBzImF_ADGUNNSKKD-3" value="Patient" style="shape=umlActor;verticalLabelPosition=bottom;verticalAlign=top;html=1;" parent="1" vertex="1">
                    <mxGeometry x="-390" y="900" width="30" height="60" as="geometry"/>
                </mxCell>
                <mxCell id="G2vlBzImF_ADGUNNSKKD-4" value="Doctor" style="shape=umlActor;verticalLabelPosition=bottom;verticalAlign=top;html=1;" parent="1" vertex="1">
                    <mxGeometry x="-400" y="1076.55" width="30" height="60" as="geometry"/>
                </mxCell>
                <mxCell id="G2vlBzImF_ADGUNNSKKD-7" value="" style="endArrow=classic;html=1;rounded=0;exitX=0.5;exitY=0.5;exitDx=0;exitDy=0;exitPerimeter=0;" parent="1" source="G2vlBzImF_ADGUNNSKKD-3" target="G2vlBzImF_ADGUNNSKKD-6" edge="1">
                    <mxGeometry width="50" height="50" relative="1" as="geometry">
                        <mxPoint x="270" y="520" as="sourcePoint"/>
                        <mxPoint x="320" y="470" as="targetPoint"/>
                    </mxGeometry>
                </mxCell>
                <mxCell id="G2vlBzImF_ADGUNNSKKD-10" value="" style="endArrow=classic;html=1;rounded=0;entryX=0.533;entryY=0.391;entryDx=0;entryDy=0;entryPerimeter=0;" parent="1" source="G2vlBzImF_ADGUNNSKKD-11" target="G2vlBzImF_ADGUNNSKKD-4" edge="1">
                    <mxGeometry width="50" height="50" relative="1" as="geometry">
                        <mxPoint x="-235" y="190" as="sourcePoint"/>
                        <mxPoint x="19.270807687124034" y="310.88284299879683" as="targetPoint"/>
                    </mxGeometry>
                </mxCell>
                <mxCell id="G2vlBzImF_ADGUNNSKKD-30" value="Upload medical papers" style="ellipse;whiteSpace=wrap;html=1;" parent="1" vertex="1">
                    <mxGeometry x="95.91" y="780" width="140" height="70" as="geometry"/>
                </mxCell>
                <mxCell id="G2vlBzImF_ADGUNNSKKD-31" value="" style="endArrow=classic;html=1;rounded=0;exitX=0.5;exitY=0.5;exitDx=0;exitDy=0;exitPerimeter=0;" parent="1" source="G2vlBzImF_ADGUNNSKKD-3" target="G2vlBzImF_ADGUNNSKKD-30" edge="1">
                    <mxGeometry width="50" height="50" relative="1" as="geometry">
                        <mxPoint x="220" y="870" as="sourcePoint"/>
                        <mxPoint x="270" y="820" as="targetPoint"/>
                    </mxGeometry>
                </mxCell>
                <mxCell id="G2vlBzImF_ADGUNNSKKD-32" value="" style="endArrow=classic;html=1;rounded=0;exitX=0.533;exitY=0.391;exitDx=0;exitDy=0;exitPerimeter=0;" parent="1" source="G2vlBzImF_ADGUNNSKKD-4" target="G2vlBzImF_ADGUNNSKKD-30" edge="1">
                    <mxGeometry width="50" height="50" relative="1" as="geometry">
                        <mxPoint x="-245" y="613.45" as="sourcePoint"/>
                        <mxPoint x="-23.15236086762843" y="804.7332214902453" as="targetPoint"/>
                    </mxGeometry>
                </mxCell>
                <mxCell id="G2vlBzImF_ADGUNNSKKD-5" value="Amazon Lex Console (chatbot)" style="shape=umlFrame;whiteSpace=wrap;html=1;width=130;height=30;" parent="1" vertex="1">
                    <mxGeometry x="-100" y="530" width="350" height="210" as="geometry"/>
                </mxCell>
                <mxCell id="G2vlBzImF_ADGUNNSKKD-6" value="Gathers patient's feedbacks&amp;nbsp;" style="ellipse;whiteSpace=wrap;html=1;" parent="1" vertex="1">
                    <mxGeometry x="-45.45454545454546" y="573.448275862069" width="95.45454545454544" height="50.6896551724138" as="geometry"/>
                </mxCell>
                <mxCell id="G2vlBzImF_ADGUNNSKKD-8" value="View appropriate doctors" style="ellipse;whiteSpace=wrap;html=1;" parent="1" vertex="1">
                    <mxGeometry x="-45.45454545454546" y="659.6906896551725" width="95.45454545454544" height="50.6896551724138" as="geometry"/>
                </mxCell>
                <mxCell id="G2vlBzImF_ADGUNNSKKD-11" value="Talk with doctor" style="ellipse;whiteSpace=wrap;html=1;" parent="1" vertex="1">
                    <mxGeometry x="-45.458181818181856" y="770.0006896551724" width="95.45454545454544" height="50.6896551724138" as="geometry"/>
                </mxCell>
                <mxCell id="G2vlBzImF_ADGUNNSKKD-12" value="" style="endArrow=classicThin;dashed=1;html=1;rounded=0;endFill=1;" parent="1" source="G2vlBzImF_ADGUNNSKKD-11" target="G2vlBzImF_ADGUNNSKKD-8" edge="1">
                    <mxGeometry width="50" height="50" relative="1" as="geometry">
                        <mxPoint x="104.54545454545453" y="631.3793103448276" as="sourcePoint"/>
                        <mxPoint x="138.6363636363636" y="595.1724137931035" as="targetPoint"/>
                    </mxGeometry>
                </mxCell>
                <mxCell id="G2vlBzImF_ADGUNNSKKD-13" value="extend" style="edgeLabel;html=1;align=center;verticalAlign=middle;resizable=0;points=[];" parent="G2vlBzImF_ADGUNNSKKD-12" vertex="1" connectable="0">
                    <mxGeometry x="-0.2524" relative="1" as="geometry">
                        <mxPoint as="offset"/>
                    </mxGeometry>
                </mxCell>
                <mxCell id="G2vlBzImF_ADGUNNSKKD-17" value="Store patient's medical activities and history" style="ellipse;whiteSpace=wrap;html=1;" parent="1" vertex="1">
                    <mxGeometry x="414" y="600" width="106" height="60.69" as="geometry"/>
                </mxCell>
                <mxCell id="G2vlBzImF_ADGUNNSKKD-21" value="" style="endArrow=classicThin;dashed=1;html=1;rounded=0;endFill=1;" parent="1" source="G2vlBzImF_ADGUNNSKKD-6" target="G2vlBzImF_ADGUNNSKKD-17" edge="1">
                    <mxGeometry width="50" height="50" relative="1" as="geometry">
                        <mxPoint x="63.636363636363626" y="508.2758620689655" as="sourcePoint"/>
                        <mxPoint x="97.72727272727272" y="472.0689655172414" as="targetPoint"/>
                    </mxGeometry>
                </mxCell>
                <mxCell id="G2vlBzImF_ADGUNNSKKD-22" value="include" style="edgeLabel;html=1;align=center;verticalAlign=middle;resizable=0;points=[];" parent="G2vlBzImF_ADGUNNSKKD-21" vertex="1" connectable="0">
                    <mxGeometry x="-0.2524" relative="1" as="geometry">
                        <mxPoint as="offset"/>
                    </mxGeometry>
                </mxCell>
                <mxCell id="G2vlBzImF_ADGUNNSKKD-19" value="" style="endArrow=classicThin;dashed=1;html=1;rounded=0;endFill=1;" parent="1" source="G2vlBzImF_ADGUNNSKKD-11" target="G2vlBzImF_ADGUNNSKKD-17" edge="1">
                    <mxGeometry width="50" height="50" relative="1" as="geometry">
                        <mxPoint x="329.5454545454545" y="877.5862068965517" as="sourcePoint"/>
                        <mxPoint x="363.6363636363636" y="841.3793103448277" as="targetPoint"/>
                    </mxGeometry>
                </mxCell>
                <mxCell id="G2vlBzImF_ADGUNNSKKD-20" value="include" style="edgeLabel;html=1;align=center;verticalAlign=middle;resizable=0;points=[];" parent="G2vlBzImF_ADGUNNSKKD-19" vertex="1" connectable="0">
                    <mxGeometry x="-0.2524" relative="1" as="geometry">
                        <mxPoint as="offset"/>
                    </mxGeometry>
                </mxCell>
                <mxCell id="G2vlBzImF_ADGUNNSKKD-33" value="" style="endArrow=classicThin;dashed=1;html=1;rounded=0;endFill=1;" parent="1" source="G2vlBzImF_ADGUNNSKKD-30" target="G2vlBzImF_ADGUNNSKKD-17" edge="1">
                    <mxGeometry width="50" height="50" relative="1" as="geometry">
                        <mxPoint x="220" y="870" as="sourcePoint"/>
                        <mxPoint x="270" y="820" as="targetPoint"/>
                    </mxGeometry>
                </mxCell>
                <mxCell id="G2vlBzImF_ADGUNNSKKD-34" value="include" style="edgeLabel;html=1;align=center;verticalAlign=middle;resizable=0;points=[];" parent="G2vlBzImF_ADGUNNSKKD-33" vertex="1" connectable="0">
                    <mxGeometry x="-0.2524" relative="1" as="geometry">
                        <mxPoint as="offset"/>
                    </mxGeometry>
                </mxCell>
                <mxCell id="G2vlBzImF_ADGUNNSKKD-24" value="Transform raw data into structured data" style="ellipse;whiteSpace=wrap;html=1;" parent="1" vertex="1">
                    <mxGeometry x="840.0000000000001" y="795.6999999999999" width="164.09" height="81" as="geometry"/>
                </mxCell>
                <mxCell id="G2vlBzImF_ADGUNNSKKD-39" value="View Patient data" style="ellipse;whiteSpace=wrap;html=1;" parent="1" vertex="1">
                    <mxGeometry x="73.64" y="860" width="140" height="70" as="geometry"/>
                </mxCell>
                <mxCell id="G2vlBzImF_ADGUNNSKKD-40" value="" style="endArrow=classic;html=1;rounded=0;exitX=0.5;exitY=0.5;exitDx=0;exitDy=0;exitPerimeter=0;" parent="1" source="G2vlBzImF_ADGUNNSKKD-3" target="G2vlBzImF_ADGUNNSKKD-39" edge="1">
                    <mxGeometry width="50" height="50" relative="1" as="geometry">
                        <mxPoint x="-220" y="1230" as="sourcePoint"/>
                        <mxPoint x="-170" y="1180" as="targetPoint"/>
                    </mxGeometry>
                </mxCell>
                <mxCell id="G2vlBzImF_ADGUNNSKKD-41" value="" style="endArrow=classic;html=1;rounded=0;exitX=0.567;exitY=0.399;exitDx=0;exitDy=0;exitPerimeter=0;" parent="1" source="G2vlBzImF_ADGUNNSKKD-4" target="G2vlBzImF_ADGUNNSKKD-39" edge="1">
                    <mxGeometry width="50" height="50" relative="1" as="geometry">
                        <mxPoint x="-255" y="940" as="sourcePoint"/>
                        <mxPoint x="29.475147246232154" y="1022.4163271816269" as="targetPoint"/>
                    </mxGeometry>
                </mxCell>
                <mxCell id="G2vlBzImF_ADGUNNSKKD-43" value="Comment patient medical elaborated data and papers" style="ellipse;whiteSpace=wrap;html=1;" parent="1" vertex="1">
                    <mxGeometry x="118.18" y="1010" width="165" height="80" as="geometry"/>
                </mxCell>
                <mxCell id="G2vlBzImF_ADGUNNSKKD-44" value="" style="endArrow=classic;html=1;rounded=0;exitX=0.55;exitY=0.408;exitDx=0;exitDy=0;exitPerimeter=0;" parent="1" source="G2vlBzImF_ADGUNNSKKD-4" target="G2vlBzImF_ADGUNNSKKD-43" edge="1">
                    <mxGeometry width="50" height="50" relative="1" as="geometry">
                        <mxPoint x="-270" y="1260" as="sourcePoint"/>
                        <mxPoint x="-220" y="1210" as="targetPoint"/>
                    </mxGeometry>
                </mxCell>
                <mxCell id="G2vlBzImF_ADGUNNSKKD-45" value="View Doctor's comments" style="ellipse;whiteSpace=wrap;html=1;" parent="1" vertex="1">
                    <mxGeometry x="30" y="940" width="140" height="70" as="geometry"/>
                </mxCell>
                <mxCell id="G2vlBzImF_ADGUNNSKKD-46" value="" style="endArrow=classic;html=1;rounded=0;" parent="1" target="G2vlBzImF_ADGUNNSKKD-45" edge="1">
                    <mxGeometry width="50" height="50" relative="1" as="geometry">
                        <mxPoint x="-370" y="930" as="sourcePoint"/>
                        <mxPoint x="-250" y="770" as="targetPoint"/>
                    </mxGeometry>
                </mxCell>
                <mxCell id="G2vlBzImF_ADGUNNSKKD-47" value="Amazon DynamoDB" style="shape=umlFrame;whiteSpace=wrap;html=1;width=90;height=31;" parent="1" vertex="1">
                    <mxGeometry x="720" y="480" width="430" height="200" as="geometry"/>
                </mxCell>
                <mxCell id="G2vlBzImF_ADGUNNSKKD-48" value="Query stored data" style="ellipse;whiteSpace=wrap;html=1;" parent="1" vertex="1">
                    <mxGeometry x="800" y="503.45000000000005" width="140" height="70" as="geometry"/>
                </mxCell>
                <mxCell id="G2vlBzImF_ADGUNNSKKD-49" value="Amazon S3" style="shape=umlFrame;whiteSpace=wrap;html=1;" parent="1" vertex="1">
                    <mxGeometry x="1240" y="480" width="300" height="200" as="geometry"/>
                </mxCell>
                <mxCell id="G2vlBzImF_ADGUNNSKKD-50" value="Put data in permanent storage" style="ellipse;whiteSpace=wrap;html=1;" parent="1" vertex="1">
                    <mxGeometry x="1320.01" y="541.5000000000001" width="140" height="77" as="geometry"/>
                </mxCell>
                <mxCell id="G2vlBzImF_ADGUNNSKKD-52" value="Store references to raw data" style="ellipse;whiteSpace=wrap;html=1;" parent="1" vertex="1">
                    <mxGeometry x="800" y="589.69" width="140" height="70" as="geometry"/>
                </mxCell>
                <mxCell id="G2vlBzImF_ADGUNNSKKD-56" value="Register" style="ellipse;whiteSpace=wrap;html=1;" parent="1" vertex="1">
                    <mxGeometry x="-1.8200000000000003" y="1220" width="120" height="80" as="geometry"/>
                </mxCell>
                <mxCell id="G2vlBzImF_ADGUNNSKKD-57" value="Login*" style="ellipse;whiteSpace=wrap;html=1;" parent="1" vertex="1">
                    <mxGeometry x="-1.8200000000000003" y="1310" width="120" height="80" as="geometry"/>
                </mxCell>
                <mxCell id="G2vlBzImF_ADGUNNSKKD-60" value="*Login is included in each use case of Frontend&amp;nbsp;" style="text;html=1;align=center;verticalAlign=middle;resizable=0;points=[];autosize=1;strokeColor=none;fillColor=none;" parent="1" vertex="1">
                    <mxGeometry x="80" y="1500" width="270" height="20" as="geometry"/>
                </mxCell>
                <mxCell id="G2vlBzImF_ADGUNNSKKD-61" value="" style="endArrow=classicThin;dashed=1;html=1;rounded=0;endFill=1;" parent="1" source="G2vlBzImF_ADGUNNSKKD-6" target="G2vlBzImF_ADGUNNSKKD-8" edge="1">
                    <mxGeometry width="50" height="50" relative="1" as="geometry">
                        <mxPoint x="59.481978550221584" y="612.5171341922528" as="sourcePoint"/>
                        <mxPoint x="424.52355840764994" y="641.5937859823352" as="targetPoint"/>
                    </mxGeometry>
                </mxCell>
                <mxCell id="G2vlBzImF_ADGUNNSKKD-62" value="include" style="edgeLabel;html=1;align=center;verticalAlign=middle;resizable=0;points=[];" parent="G2vlBzImF_ADGUNNSKKD-61" vertex="1" connectable="0">
                    <mxGeometry x="-0.2524" relative="1" as="geometry">
                        <mxPoint as="offset"/>
                    </mxGeometry>
                </mxCell>
                <mxCell id="G2vlBzImF_ADGUNNSKKD-63" value="" style="endArrow=classicThin;dashed=1;html=1;rounded=0;endFill=1;exitX=1;exitY=0.5;exitDx=0;exitDy=0;" parent="1" source="G2vlBzImF_ADGUNNSKKD-17" target="G2vlBzImF_ADGUNNSKKD-52" edge="1">
                    <mxGeometry width="50" height="50" relative="1" as="geometry">
                        <mxPoint x="220.14287591416132" y="797.8732019565323" as="sourcePoint"/>
                        <mxPoint x="440.8201097779347" y="662.5197714264266" as="targetPoint"/>
                    </mxGeometry>
                </mxCell>
                <mxCell id="G2vlBzImF_ADGUNNSKKD-64" value="include" style="edgeLabel;html=1;align=center;verticalAlign=middle;resizable=0;points=[];" parent="G2vlBzImF_ADGUNNSKKD-63" vertex="1" connectable="0">
                    <mxGeometry x="-0.2524" relative="1" as="geometry">
                        <mxPoint as="offset"/>
                    </mxGeometry>
                </mxCell>
                <mxCell id="G2vlBzImF_ADGUNNSKKD-65" value="" style="endArrow=classicThin;dashed=1;html=1;rounded=0;endFill=1;" parent="1" source="G2vlBzImF_ADGUNNSKKD-52" target="G2vlBzImF_ADGUNNSKKD-50" edge="1">
                    <mxGeometry width="50" height="50" relative="1" as="geometry">
                        <mxPoint x="990.0028759141613" y="627.3632019565323" as="sourcePoint"/>
                        <mxPoint x="1210.6801097779348" y="492.0097714264266" as="targetPoint"/>
                    </mxGeometry>
                </mxCell>
                <mxCell id="G2vlBzImF_ADGUNNSKKD-66" value="include" style="edgeLabel;html=1;align=center;verticalAlign=middle;resizable=0;points=[];" parent="G2vlBzImF_ADGUNNSKKD-65" vertex="1" connectable="0">
                    <mxGeometry x="-0.2524" relative="1" as="geometry">
                        <mxPoint as="offset"/>
                    </mxGeometry>
                </mxCell>
                <mxCell id="G2vlBzImF_ADGUNNSKKD-67" value="" style="endArrow=classicThin;dashed=1;html=1;rounded=0;endFill=1;" parent="1" source="G2vlBzImF_ADGUNNSKKD-39" target="G2vlBzImF_ADGUNNSKKD-48" edge="1">
                    <mxGeometry width="50" height="50" relative="1" as="geometry">
                        <mxPoint x="240.14287591416132" y="817.8732019565323" as="sourcePoint"/>
                        <mxPoint x="460.8201097779347" y="682.5197714264266" as="targetPoint"/>
                    </mxGeometry>
                </mxCell>
                <mxCell id="G2vlBzImF_ADGUNNSKKD-68" value="include" style="edgeLabel;html=1;align=center;verticalAlign=middle;resizable=0;points=[];" parent="G2vlBzImF_ADGUNNSKKD-67" vertex="1" connectable="0">
                    <mxGeometry x="-0.2524" relative="1" as="geometry">
                        <mxPoint as="offset"/>
                    </mxGeometry>
                </mxCell>
                <mxCell id="G2vlBzImF_ADGUNNSKKD-69" value="" style="endArrow=classicThin;dashed=1;html=1;rounded=0;endFill=1;" parent="1" source="G2vlBzImF_ADGUNNSKKD-45" target="G2vlBzImF_ADGUNNSKKD-48" edge="1">
                    <mxGeometry width="50" height="50" relative="1" as="geometry">
                        <mxPoint x="250.14287591416132" y="827.8732019565323" as="sourcePoint"/>
                        <mxPoint x="470.8201097779347" y="692.5197714264266" as="targetPoint"/>
                    </mxGeometry>
                </mxCell>
                <mxCell id="G2vlBzImF_ADGUNNSKKD-70" value="include" style="edgeLabel;html=1;align=center;verticalAlign=middle;resizable=0;points=[];" parent="G2vlBzImF_ADGUNNSKKD-69" vertex="1" connectable="0">
                    <mxGeometry x="-0.2524" relative="1" as="geometry">
                        <mxPoint as="offset"/>
                    </mxGeometry>
                </mxCell>
                <mxCell id="G2vlBzImF_ADGUNNSKKD-71" value="" style="endArrow=classicThin;dashed=1;html=1;rounded=0;endFill=1;" parent="1" source="G2vlBzImF_ADGUNNSKKD-43" target="G2vlBzImF_ADGUNNSKKD-52" edge="1">
                    <mxGeometry width="50" height="50" relative="1" as="geometry">
                        <mxPoint x="260.1428759141613" y="837.8732019565323" as="sourcePoint"/>
                        <mxPoint x="480.8201097779347" y="702.5197714264266" as="targetPoint"/>
                    </mxGeometry>
                </mxCell>
                <mxCell id="G2vlBzImF_ADGUNNSKKD-72" value="include" style="edgeLabel;html=1;align=center;verticalAlign=middle;resizable=0;points=[];" parent="G2vlBzImF_ADGUNNSKKD-71" vertex="1" connectable="0">
                    <mxGeometry x="-0.2524" relative="1" as="geometry">
                        <mxPoint as="offset"/>
                    </mxGeometry>
                </mxCell>
                <mxCell id="G2vlBzImF_ADGUNNSKKD-77" value="Store references to crunched data" style="ellipse;whiteSpace=wrap;html=1;" parent="1" vertex="1">
                    <mxGeometry x="970" y="490" width="140" height="70" as="geometry"/>
                </mxCell>
                <mxCell id="G2vlBzImF_ADGUNNSKKD-82" value="" style="endArrow=classicThin;dashed=1;html=1;rounded=0;endFill=1;" parent="1" source="G2vlBzImF_ADGUNNSKKD-52" target="G2vlBzImF_ADGUNNSKKD-24" edge="1">
                    <mxGeometry width="50" height="50" relative="1" as="geometry">
                        <mxPoint x="960" y="470" as="sourcePoint"/>
                        <mxPoint x="1010" y="420" as="targetPoint"/>
                    </mxGeometry>
                </mxCell>
                <mxCell id="G2vlBzImF_ADGUNNSKKD-83" value="include" style="edgeLabel;html=1;align=center;verticalAlign=middle;resizable=0;points=[];" parent="G2vlBzImF_ADGUNNSKKD-82" vertex="1" connectable="0">
                    <mxGeometry x="-0.2524" relative="1" as="geometry">
                        <mxPoint as="offset"/>
                    </mxGeometry>
                </mxCell>
                <mxCell id="G2vlBzImF_ADGUNNSKKD-86" value="" style="endArrow=classicThin;dashed=1;html=1;rounded=0;endFill=1;" parent="1" source="G2vlBzImF_ADGUNNSKKD-77" target="G2vlBzImF_ADGUNNSKKD-50" edge="1">
                    <mxGeometry width="50" height="50" relative="1" as="geometry">
                        <mxPoint x="1170" y="650" as="sourcePoint"/>
                        <mxPoint x="1220" y="600" as="targetPoint"/>
                    </mxGeometry>
                </mxCell>
                <mxCell id="G2vlBzImF_ADGUNNSKKD-87" value="include" style="edgeLabel;html=1;align=center;verticalAlign=middle;resizable=0;points=[];" parent="G2vlBzImF_ADGUNNSKKD-86" vertex="1" connectable="0">
                    <mxGeometry x="-0.2524" relative="1" as="geometry">
                        <mxPoint as="offset"/>
                    </mxGeometry>
                </mxCell>
                <mxCell id="G2vlBzImF_ADGUNNSKKD-89" value="" style="endArrow=classicThin;dashed=1;html=1;rounded=0;endFill=1;exitX=0.809;exitY=0.068;exitDx=0;exitDy=0;exitPerimeter=0;entryX=0;entryY=1;entryDx=0;entryDy=0;" parent="1" source="G2vlBzImF_ADGUNNSKKD-43" target="G2vlBzImF_ADGUNNSKKD-48" edge="1">
                    <mxGeometry width="50" height="50" relative="1" as="geometry">
                        <mxPoint x="350" y="1120" as="sourcePoint"/>
                        <mxPoint x="400" y="1070" as="targetPoint"/>
                    </mxGeometry>
                </mxCell>
                <mxCell id="G2vlBzImF_ADGUNNSKKD-90" value="include" style="edgeLabel;html=1;align=center;verticalAlign=middle;resizable=0;points=[];" parent="G2vlBzImF_ADGUNNSKKD-89" vertex="1" connectable="0">
                    <mxGeometry x="-0.2524" relative="1" as="geometry">
                        <mxPoint as="offset"/>
                    </mxGeometry>
                </mxCell>
                <mxCell id="G2vlBzImF_ADGUNNSKKD-91" value="" style="endArrow=classic;html=1;rounded=0;" parent="1" target="G2vlBzImF_ADGUNNSKKD-57" edge="1">
                    <mxGeometry width="50" height="50" relative="1" as="geometry">
                        <mxPoint x="-370" y="930" as="sourcePoint"/>
                        <mxPoint x="-320" y="1230" as="targetPoint"/>
                    </mxGeometry>
                </mxCell>
                <mxCell id="G2vlBzImF_ADGUNNSKKD-92" value="" style="endArrow=classic;html=1;rounded=0;exitX=0.557;exitY=0.362;exitDx=0;exitDy=0;exitPerimeter=0;" parent="1" source="G2vlBzImF_ADGUNNSKKD-4" target="G2vlBzImF_ADGUNNSKKD-57" edge="1">
                    <mxGeometry width="50" height="50" relative="1" as="geometry">
                        <mxPoint x="-310" y="1290" as="sourcePoint"/>
                        <mxPoint x="-260" y="1240" as="targetPoint"/>
                    </mxGeometry>
                </mxCell>
                <mxCell id="G2vlBzImF_ADGUNNSKKD-55" value="Login" style="shape=umlFrame;whiteSpace=wrap;html=1;width=130;height=30;" parent="1" vertex="1">
                    <mxGeometry x="-100" y="1190" width="350" height="210" as="geometry"/>
                </mxCell>
                <mxCell id="G2vlBzImF_ADGUNNSKKD-93" value="Contact patient" style="ellipse;whiteSpace=wrap;html=1;" parent="1" vertex="1">
                    <mxGeometry x="350" y="1130" width="165" height="80" as="geometry"/>
                </mxCell>
                <mxCell id="G2vlBzImF_ADGUNNSKKD-94" value="" style="endArrow=classic;html=1;rounded=0;exitX=0.59;exitY=0.374;exitDx=0;exitDy=0;exitPerimeter=0;" parent="1" source="G2vlBzImF_ADGUNNSKKD-4" target="G2vlBzImF_ADGUNNSKKD-93" edge="1">
                    <mxGeometry width="50" height="50" relative="1" as="geometry">
                        <mxPoint x="-310" y="810" as="sourcePoint"/>
                        <mxPoint x="-260" y="760" as="targetPoint"/>
                    </mxGeometry>
                </mxCell>
                <mxCell id="G2vlBzImF_ADGUNNSKKD-96" value="" style="endArrow=none;dashed=1;html=1;rounded=0;endFill=0;startArrow=classic;startFill=1;exitX=1;exitY=1;exitDx=0;exitDy=0;" parent="1" source="G2vlBzImF_ADGUNNSKKD-39" target="G2vlBzImF_ADGUNNSKKD-93" edge="1">
                    <mxGeometry width="50" height="50" relative="1" as="geometry">
                        <mxPoint x="430" y="1070" as="sourcePoint"/>
                        <mxPoint x="480" y="1020" as="targetPoint"/>
                    </mxGeometry>
                </mxCell>
                <mxCell id="G2vlBzImF_ADGUNNSKKD-97" value="extend" style="edgeLabel;html=1;align=center;verticalAlign=middle;resizable=0;points=[];" parent="G2vlBzImF_ADGUNNSKKD-96" vertex="1" connectable="0">
                    <mxGeometry x="-0.2524" relative="1" as="geometry">
                        <mxPoint as="offset"/>
                    </mxGeometry>
                </mxCell>
                <mxCell id="G2vlBzImF_ADGUNNSKKD-98" value="" style="endArrow=none;dashed=1;html=1;rounded=0;endFill=0;startArrow=classic;startFill=1;" parent="1" source="G2vlBzImF_ADGUNNSKKD-43" target="G2vlBzImF_ADGUNNSKKD-93" edge="1">
                    <mxGeometry width="50" height="50" relative="1" as="geometry">
                        <mxPoint x="270" y="1080" as="sourcePoint"/>
                        <mxPoint x="320" y="1030" as="targetPoint"/>
                    </mxGeometry>
                </mxCell>
                <mxCell id="G2vlBzImF_ADGUNNSKKD-99" value="extend" style="edgeLabel;html=1;align=center;verticalAlign=middle;resizable=0;points=[];" parent="G2vlBzImF_ADGUNNSKKD-98" vertex="1" connectable="0">
                    <mxGeometry x="-0.2524" relative="1" as="geometry">
                        <mxPoint as="offset"/>
                    </mxGeometry>
                </mxCell>
                <mxCell id="G2vlBzImF_ADGUNNSKKD-100" value="" style="endArrow=classic;html=1;rounded=0;" parent="1" target="G2vlBzImF_ADGUNNSKKD-11" edge="1">
                    <mxGeometry width="50" height="50" relative="1" as="geometry">
                        <mxPoint x="-370" y="930" as="sourcePoint"/>
                        <mxPoint x="-270" y="720" as="targetPoint"/>
                    </mxGeometry>
                </mxCell>
            </root>
        </mxGraphModel>
    </diagram>
</mxfile>